<?xml version="1.0" encoding="utf-8"?>
<!-- Generator: Adobe Illustrator 19.0.0, SVG Export Plug-In . SVG Version: 6.00 Build 0)  -->
<svg version="1.1" id="Layer_1" xmlns="http://www.w3.org/2000/svg" xmlns:xlink="http://www.w3.org/1999/xlink" x="0px" y="0px"
	 width="115.3px" height="113.9px" viewBox="0 0 115.3 113.9" enable-background="new 0 0 115.3 113.9" xml:space="preserve">
<rect id="XMLID_663_" x="-0.6" y="0" fill="none" width="115.9" height="113.9"/>
<g id="XMLID_217_">
	<g id="XMLID_38_">
		<circle id="XMLID_5469_" fill="#FFFFFF" cx="60.4" cy="58.4" r="52"/>
		<path id="XMLID_43_" fill="none" stroke="#435363" stroke-width="6" stroke-miterlimit="10" d="M101.1,91.3
			c-3.3,4.1-7.2,7.6-11.4,10.5c-5.6,3.8-11.9,6.4-18.5,7.8c-6.6,1.4-13.4,1.5-20.1,0.3c-6.7-1.2-13.3-3.7-19.3-7.7
			s-11-8.9-14.8-14.6c-3.8-5.6-6.4-11.9-7.8-18.5c-1.4-6.6-1.5-13.4-0.3-20.1c1.2-6.7,3.7-13.3,7.7-19.3c3.9-6.1,8.9-11,14.6-14.8
			c5.6-3.8,11.9-6.4,18.5-7.8c6.6-1.4,13.4-1.5,20.1-0.3c6.7,1.2,13.3,3.7,19.3,7.7c3.4,2.2,6.5,4.8,9.2,7.6"/>
		<g id="XMLID_41_">
			<circle id="XMLID_42_" fill="#435363" cx="100.9" cy="91.5" r="5.6"/>
		</g>
		<g id="XMLID_39_">
			<polygon id="XMLID_40_" fill="#435363" points="83.1,20.5 96.8,20.8 99.6,10.4 103.7,29.1"/>
		</g>
	</g>
</g>
<circle id="XMLID_546_" fill="#00A98F" cx="60.4" cy="35.4" r="3.2"/>
<circle id="XMLID_515_" fill="#00A98F" cx="50.4" cy="49.4" r="3.2"/>
<circle id="XMLID_487_" fill="#00A98F" cx="63.9" cy="64.4" r="3.2"/>
<circle id="XMLID_486_" fill="#00A98F" cx="49.3" cy="87.5" r="3.2"/>
<circle id="XMLID_485_" fill="#00A98F" cx="29.5" cy="50.5" r="5.7"/>
<circle id="XMLID_7_" fill="#00A98F" cx="49.6" cy="87.9" r="5.7"/>
<circle id="XMLID_8_" fill="#00A98F" cx="50.6" cy="50" r="5.7"/>
<circle id="XMLID_9_" fill="#00A98F" cx="60.5" cy="35.4" r="5.7"/>
<circle id="XMLID_10_" fill="#00A98F" cx="63.8" cy="64.2" r="5.7"/>
<circle id="XMLID_11_" fill="#00A98F" cx="82.1" cy="67.2" r="5.7"/>
<circle id="XMLID_13_" fill="#00A98F" cx="90.6" cy="43.2" r="5.7"/>
<circle id="XMLID_484_" fill="#00A98F" cx="82.9" cy="67.6" r="3.2"/>
<circle id="XMLID_483_" fill="#00A98F" cx="90.6" cy="43" r="3.2"/>
<path id="XMLID_482_" fill="none" stroke="#00A98F" stroke-width="3" stroke-miterlimit="10" d="M59.8,34.7
	C71.7,41.8,80.1,54.5,82,68.2"/>
<path id="XMLID_481_" fill="none" stroke="#00A98F" stroke-width="3" stroke-miterlimit="10" d="M59.7,34.7
	c-13.4,14.6-18,33.1-9.8,53.7"/>
<g id="XMLID_474_">
	<g id="XMLID_23_">
	<path xmlns="http://www.w3.org/2000/svg" id="XMLID_27_" fill="none" stroke="#00A98F" stroke-width="3" stroke-miterlimit="10" d="M48.5,89c14.9,0.6,29.4-8,36.1-21.3c0.9-1.7-1.7-3.2-2.6-1.5"/>	</g>
</g>
<path id="XMLID_473_" fill="none" stroke="#00A98F" stroke-width="3" stroke-miterlimit="10" d="M61.3,34.9
	c-13.7-2.3-26.8,4.6-31.6,15.5c-6,13.7,1.9,32.4,19.2,38.2"/>
<path id="XMLID_472_" fill="none" stroke="#00A98F" stroke-width="3" stroke-miterlimit="10" d="M61.4,33.8
	c12.1-6,25.9-0.7,30.3,9.5c3.4,8,0.6,18.4-7.2,24.8"/>
<path id="XMLID_471_" fill="none" stroke="#00A98F" stroke-width="3" stroke-miterlimit="10" d="M50.4,49.6
	c0.9,2.1,3.1,10.1,13.2,14.8c8.1,3.7,16.8,3.9,19.4,3.4"/>
<g id="XMLID_6_">
</g>
<g id="XMLID_12_">
</g>
<g id="XMLID_14_">
</g>
<g id="XMLID_15_">
</g>
<g id="XMLID_16_">
</g>
<g id="XMLID_17_">
</g>
<g id="XMLID_19_">
</g>
<g id="XMLID_20_">
</g>
</svg>
