<?xml version="1.0" encoding="utf-8"?>
<!-- Generator: Adobe Illustrator 19.0.0, SVG Export Plug-In . SVG Version: 6.00 Build 0)  -->
<svg version="1.1" id="Layer_1" xmlns="http://www.w3.org/2000/svg" xmlns:xlink="http://www.w3.org/1999/xlink" x="0px" y="0px"
	 width="301.7px" height="113.9px" viewBox="0 0 301.7 113.9" enable-background="new 0 0 301.7 113.9" xml:space="preserve">
<rect id="XMLID_50_" x="-1.6" y="1.4" fill="none" width="303" height="112.5"/>
<g id="XMLID_137_">
	<path id="XMLID_138_" fill="#FFFFFF" d="M113,36v4h7.1v5.3H113v4.2h7.5v5.3h-13.7V30.7h13.7V36H113z"/>
	<path id="XMLID_140_" fill="#FFFFFF" d="M124.3,30.7h6.3l11.5,14.8h0.1V30.7h6.3v24.1h-6.3l-11.5-14.8h-0.1v14.8h-6.3V30.7z"/>
	<path id="XMLID_142_" fill="#FFFFFF" d="M167.9,40v-9.3h6.3v24.1h-6.3V45h-9.1v9.9h-6.3V30.7h6.3V40H167.9z"/>
	<path id="XMLID_144_" fill="#FFFFFF" d="M184.4,50.6l-1.7,4.2h-6.7l9.3-24.1h6.8l9.1,24.1h-6.7l-1.6-4.2H184.4z M188.8,38.2
		L188.8,38.2l-2.7,7.7h5.2L188.8,38.2z"/>
	<path id="XMLID_147_" fill="#FFFFFF" d="M203.2,30.7h6.3L221,45.5h0.1V30.7h6.3v24.1H221l-11.5-14.8h-0.1v14.8h-6.3V30.7z"/>
	<path id="XMLID_149_" fill="#FFFFFF" d="M248.7,38.8c-1.3-1.7-3.4-2.7-5.5-2.7c-3.8,0-6.4,2.9-6.4,6.7c0,3.8,2.6,6.6,6.5,6.6
		c2,0,4.1-1,5.4-2.6v7.5c-2.1,0.6-3.6,1.1-5.5,1.1c-3.4,0-6.6-1.3-9.1-3.6c-2.7-2.4-3.9-5.5-3.9-9.1c0-3.3,1.2-6.5,3.6-8.8
		c2.4-2.4,5.8-3.9,9.2-3.9c2,0,3.9,0.4,5.7,1.2V38.8z"/>
	<path id="XMLID_151_" fill="#FFFFFF" d="M258.8,36v4h7.1v5.3h-7.1v4.2h7.5v5.3h-13.7V30.7h13.7V36H258.8z"/>
	<path id="XMLID_153_" fill="#FFFFFF" d="M270.1,30.7h8.9c6.7,0,12.3,5.3,12.3,12.1s-5.6,12.1-12.3,12.1h-8.9V30.7z M276.4,49.5h1.4
		c3.7,0,6.9-2,6.9-6.8c0-4.3-2.8-6.8-6.9-6.8h-1.5V49.5z"/>
</g>
<g id="XMLID_65_">
	<path id="XMLID_156_" fill="#FFFFFF" d="M107.9,79.1h4.6v1.1h-5.8V61.9h1.2V79.1z"/>
	<path id="XMLID_158_" fill="#FFFFFF" d="M116.2,63v6.6h7.4v1.1h-7.4v8.3h7.5v1.1h-8.7V61.9h8.7V63H116.2z"/>
	<path id="XMLID_160_" fill="#FFFFFF" d="M129.5,74.2l-2.4,6h-1.2l7.6-18.9l7.6,18.9H140l-2.4-6H129.5z M133.5,64.3l-3.6,8.8h7.1
		L133.5,64.3z"/>
	<path id="XMLID_163_" fill="#FFFFFF" d="M152.7,80.2h-1.3l-6-8.6h-0.6v8.6h-1.2V61.9h2.3c1.5,0,2.9,0,4.2,0.9
		c1.3,0.9,1.8,2.4,1.8,3.9c0,3.2-2.2,4.8-5.2,4.8L152.7,80.2z M146.3,70.5c1.1,0,2.3,0,3.2-0.8c0.9-0.7,1.3-1.8,1.3-2.9
		c0-1.4-0.6-2.7-1.9-3.3c-1-0.5-2.2-0.4-3.3-0.4h-0.8v7.4H146.3z"/>
	<path id="XMLID_166_" fill="#FFFFFF" d="M172.4,80.8L157,64.5v15.7h-1.2V61.7l15.3,16.2V61.9h1.2V80.8z"/>
	<path id="XMLID_168_" fill="#FFFFFF" d="M177.8,80.2h-1.2V61.9h1.2V80.2z"/>
	<path id="XMLID_170_" fill="#FFFFFF" d="M198.7,80.8l-15.3-16.3v15.7h-1.2V61.7l15.3,16.2V61.9h1.2V80.8z"/>
	<path id="XMLID_172_" fill="#FFFFFF" d="M220.1,71.4c0,2.3-0.3,4.3-1.9,6.1c-1.7,1.9-4.4,3-6.9,3c-5.1,0-9.4-4.3-9.4-9.3
		c0-5.2,4.3-9.4,9.5-9.4c3.3,0,6,1.6,7.9,4.3l-0.9,0.7c-1.6-2.4-4.1-3.9-7-3.9c-4.5,0-8.3,3.9-8.3,8.3c0,4.5,3.7,8.3,8.3,8.3
		c2,0,3.9-0.8,5.4-2c1.6-1.3,2.2-2.9,2.2-4.8h-6.5v-1.1H220.1z"/>
	<path id="XMLID_174_" fill="#FFFFFF" d="M246.5,65.1L246.5,65.1l-6.4,15.7l-6.3-15.7h0l-3.1,15.1h-1.1l3.9-18.9l6.7,16.6l6.7-16.6
		l3.9,18.9h-1.1L246.5,65.1z"/>
	<path id="XMLID_176_" fill="#FFFFFF" d="M255.2,74.2l-2.4,6h-1.2l7.6-18.9l7.6,18.9h-1.2l-2.4-6H255.2z M259.2,64.3l-3.6,8.8h7.1
		L259.2,64.3z"/>
	<path id="XMLID_179_" fill="#FFFFFF" d="M270.5,80.2h-1.2V61.9h3.2c1.4,0,2.8,0.1,3.9,1.1c1.1,0.9,1.6,2.3,1.6,3.8
		c0,1.3-0.5,2.8-1.5,3.6c-1.1,1-2.6,1.2-4.1,1.2h-2.1V80.2z M272.6,70.4c1.2,0,2.2-0.1,3.2-1c0.8-0.7,1.2-1.7,1.2-2.7
		c0-1.1-0.5-2.3-1.4-3c-0.9-0.7-2.1-0.7-3.2-0.7h-1.9v7.4H272.6z"/>
	<path id="XMLID_182_" fill="#FFFFFF" d="M289.6,64.9c-0.8-1.3-2-2.2-3.7-2.2c-2,0-3.4,1.6-3.4,3.5c0,1.9,1.8,2.7,3.3,3.4l3.5,1.8
		c1.4,0.9,2.1,2,2.1,3.6c0,3-2.8,5.3-5.7,5.3c-2.5,0-4.5-1.6-5.4-3.9l1-0.5c0.8,1.9,2.2,3.3,4.4,3.3c2.4,0,4.5-1.9,4.5-4.3
		c0-2.1-2.1-2.9-3.7-3.7l-3.3-1.7c-1.2-0.7-1.9-1.8-1.9-3.3c0-2.7,1.9-4.6,4.7-4.6c1.8,0,3.6,1,4.5,2.6L289.6,64.9z"/>
</g>
<!--<g id="XMLID_6_">
	<path id="XMLID_7_" fill="#FFFFFF" d="M107.8,103.2h-1.1V93h1.1V103.2z"/>
	<path id="XMLID_9_" fill="#FFFFFF" d="M110.2,92.5l8,8.3V93h1.1v10.7l-8-8.3v7.9h-1.1V92.5z"/>
	<path id="XMLID_11_" fill="#FFFFFF" d="M126.3,95c-0.4-0.7-0.9-1.1-1.8-1.1c-0.9,0-1.7,0.7-1.7,1.6c0,0.9,0.9,1.3,1.6,1.6l0.7,0.3
		c1.3,0.6,2.5,1.2,2.5,2.9c0,1.8-1.4,3.2-3.2,3.2c-1.6,0-2.9-1.1-3.2-2.6l1.1-0.3c0.1,1,0.9,1.9,2,1.9c1.1,0,2.1-0.8,2.1-2
		c0-1.2-0.9-1.6-1.9-2l-0.6-0.3c-1.2-0.5-2.2-1.2-2.2-2.6c0-1.6,1.3-2.6,2.9-2.6c1.1,0,2.1,0.6,2.6,1.6L126.3,95z"/>
	<path id="XMLID_68_" fill="#FFFFFF" d="M130.7,103.2h-1.1V93h1.1V103.2z"/>
	<path id="XMLID_80_" fill="#FFFFFF" d="M142.5,98c0,1.4-0.1,2.5-1.1,3.6c-0.9,1.1-2.4,1.7-3.8,1.7c-2.9,0-5.3-2.4-5.3-5.3
		c0-2.9,2.4-5.3,5.3-5.3c1.8,0,3.2,0.8,4.3,2.2l-0.8,0.8c-0.9-1.2-2-1.9-3.5-1.9c-2.3,0-4.2,2-4.2,4.3c0,1.1,0.4,2.1,1.2,2.9
		c0.7,0.7,1.8,1.3,2.9,1.3c1.8,0,3.6-1.3,3.6-3.2h-3V98H142.5z"/>
	<path id="XMLID_92_" fill="#FFFFFF" d="M150.7,97.1V93h1.1v10.2h-1.1v-5h-5.2v5h-1.1V93h1.1v4.1H150.7z"/>
	<path id="XMLID_94_" fill="#FFFFFF" d="M156.9,103.2h-1.1V94h-2.5V93h6.1V94h-2.5V103.2z"/>
	<path id="XMLID_96_" fill="#FFFFFF" d="M165.4,95c-0.4-0.7-0.9-1.1-1.8-1.1c-0.9,0-1.7,0.7-1.7,1.6c0,0.9,0.9,1.3,1.6,1.6l0.7,0.3
		c1.3,0.6,2.5,1.2,2.5,2.9c0,1.8-1.4,3.2-3.2,3.2c-1.6,0-2.9-1.1-3.2-2.6l1.1-0.3c0.1,1,0.9,1.9,2,1.9c1.1,0,2.1-0.8,2.1-2
		c0-1.2-0.9-1.6-1.9-2l-0.6-0.3c-1.2-0.5-2.2-1.2-2.2-2.6c0-1.6,1.3-2.6,2.9-2.6c1.1,0,2.1,0.6,2.6,1.6L165.4,95z"/>
	<path id="XMLID_98_" fill="#FFFFFF" d="M174.1,94v3h3.4v1.1h-3.4v5.1H173V93h4.6V94H174.1z"/>
	<path id="XMLID_100_" fill="#FFFFFF" d="M189.9,98.1c0,2.9-2.4,5.3-5.3,5.3s-5.3-2.3-5.3-5.3c0-2.9,2.4-5.3,5.3-5.3
		S189.9,95.2,189.9,98.1z M180.3,98.1c0,2.3,1.9,4.2,4.2,4.2s4.2-1.9,4.2-4.2c0-2.3-1.8-4.2-4.2-4.2S180.3,95.8,180.3,98.1z"/>
	<path id="XMLID_110_" fill="#FFFFFF" d="M192.8,103.2h-1.1V93h1.5c1.9,0,3.7,0.5,3.7,2.8c0,1.6-1,2.7-2.6,2.8l3.3,4.6h-1.4
		l-3.1-4.5h-0.3V103.2z M192.8,97.7h0.4c1.3,0,2.6-0.2,2.6-1.8c0-1.7-1.2-1.8-2.6-1.8h-0.3V97.7z"/>
	<path id="XMLID_113_" fill="#FFFFFF" d="M204.8,103.2h-1.1V93h1.1V103.2z"/>
	<path id="XMLID_115_" fill="#FFFFFF" d="M207.1,92.5l8,8.3V93h1.1v10.7l-8-8.3v7.9h-1.1V92.5z"/>
	<path id="XMLID_117_" fill="#FFFFFF" d="M223.2,95c-0.4-0.7-0.9-1.1-1.8-1.1c-0.9,0-1.7,0.7-1.7,1.6c0,0.9,0.9,1.3,1.6,1.6l0.7,0.3
		c1.3,0.6,2.5,1.2,2.5,2.9c0,1.8-1.4,3.2-3.2,3.2c-1.6,0-2.9-1.1-3.2-2.6l1.1-0.3c0.1,1,0.9,1.9,2,1.9c1.1,0,2.1-0.8,2.1-2
		c0-1.2-0.9-1.6-1.9-2l-0.6-0.3c-1.2-0.5-2.2-1.2-2.2-2.6c0-1.6,1.3-2.6,2.9-2.6c1.1,0,2.1,0.6,2.6,1.6L223.2,95z"/>
	<path id="XMLID_119_" fill="#FFFFFF" d="M229.1,103.2H228V94h-2.5V93h6.1V94h-2.5V103.2z"/>
	<path id="XMLID_121_" fill="#FFFFFF" d="M234.1,103.2H233V93h1.5c1.9,0,3.7,0.5,3.7,2.8c0,1.6-1,2.7-2.6,2.8l3.3,4.6h-1.4l-3.1-4.5
		h-0.3V103.2z M234.1,97.7h0.4c1.3,0,2.6-0.2,2.6-1.8c0-1.7-1.2-1.8-2.6-1.8h-0.3V97.7z"/>
	<path id="XMLID_124_" fill="#FFFFFF" d="M241.7,99c0,0.8,0,1.6,0.4,2.3c0.4,0.6,1.3,1,2.1,1c0.7,0,1.5-0.3,2-0.9
		c0.5-0.7,0.5-1.5,0.5-2.3V93h1.1v6.4c0,1.1-0.1,2-0.9,2.8c-0.7,0.8-1.7,1.2-2.8,1.2c-1,0-2-0.4-2.6-1c-0.9-0.9-1-1.8-1-3V93h1.1V99
		z"/>
	<path id="XMLID_126_" fill="#FFFFFF" d="M257.9,95.2c-0.8-0.8-1.9-1.4-3.1-1.4c-2.3,0-4.1,2-4.1,4.2c0,2.3,1.9,4.2,4.1,4.2
		c1.2,0,2.3-0.5,3.1-1.4v1.4c-0.9,0.6-2,1-3.1,1c-2.9,0-5.3-2.3-5.3-5.2c0-2.9,2.4-5.3,5.3-5.3c1.1,0,2.1,0.3,3.1,1V95.2z"/>
	<path id="XMLID_128_" fill="#FFFFFF" d="M262.7,103.2h-1.1V94h-2.5V93h6.1V94h-2.5V103.2z"/>
	<path id="XMLID_130_" fill="#FFFFFF" d="M267.8,103.2h-1.1V93h1.1V103.2z"/>
	<path id="XMLID_132_" fill="#FFFFFF" d="M280.2,98.1c0,2.9-2.4,5.3-5.3,5.3s-5.3-2.3-5.3-5.3c0-2.9,2.4-5.3,5.3-5.3
		S280.2,95.2,280.2,98.1z M270.7,98.1c0,2.3,1.9,4.2,4.2,4.2s4.2-1.9,4.2-4.2c0-2.3-1.8-4.2-4.2-4.2S270.7,95.8,270.7,98.1z"/>
	<path id="XMLID_135_" fill="#FFFFFF" d="M282.1,92.5l8,8.3V93h1.1v10.7l-8-8.3v7.9h-1.1V92.5z"/>
</g>-->
<!--<line id="XMLID_15_" fill="none" stroke="#FFFFFF" stroke-miterlimit="10" x1="107.1" y1="86.7" x2="290.8" y2="86.7"/>-->
<g id="XMLID_18_">
	<g id="XMLID_837_">
		<path id="XMLID_842_" fill="none" stroke="#FFFFFF" stroke-width="1.5" stroke-miterlimit="10" d="M101.2,88.1
			c-3.7,5.1-8.1,9.3-13.1,12.6c-5.6,3.8-11.9,6.4-18.5,7.8c-6.6,1.4-13.4,1.5-20.1,0.3s-13.3-3.7-19.3-7.7s-11-8.9-14.8-14.6
			C11.7,81,9,74.7,7.6,68.1C6.3,61.6,6.1,54.7,7.3,48c1.2-6.7,3.7-13.3,7.7-19.3c3.9-6.1,8.9-11,14.6-14.8
			c5.6-3.8,11.9-6.4,18.5-7.8c6.6-1.4,13.4-1.5,20.1-0.3c6.7,1.2,13.3,3.7,19.3,7.7c4.7,3.1,8.8,6.8,12.2,11"/>
		<g id="XMLID_840_">
			<circle id="XMLID_841_" fill="#FFFFFF" cx="101.1" cy="88.2" r="2.8"/>
		</g>
		<g id="XMLID_838_">
			<polygon id="XMLID_839_" fill="#FFFFFF" points="96.1,24.4 99.1,23.7 100.6,21.1 102.3,28 			"/>
		</g>
	</g>
</g>
<circle id="XMLID_20_" fill="#FFFFFF" cx="58.9" cy="34.3" r="3.2"/>
<circle id="XMLID_21_" fill="#FFFFFF" cx="48.9" cy="48.3" r="3.2"/>
<circle id="XMLID_25_" fill="#FFFFFF" cx="62.4" cy="63.3" r="3.2"/>
<circle id="XMLID_26_" fill="#FFFFFF" cx="47.8" cy="86.4" r="3.2"/>
<circle id="XMLID_30_" fill="#FFFFFF" cx="28.1" cy="50.8" r="3.2"/>
<circle id="XMLID_31_" fill="#FFFFFF" cx="81.4" cy="66.5" r="3.2"/>
<circle id="XMLID_39_" fill="#FFFFFF" cx="89.1" cy="41.9" r="3.2"/>
<path id="XMLID_4575_" fill="none" stroke="#FFFFFF" stroke-miterlimit="10" d="M58.3,33.6c11.9,7.1,20.3,19.8,22.2,33.6"/>
<path id="XMLID_4574_" fill="none" stroke="#FFFFFF" stroke-miterlimit="10" d="M58.2,33.6c-13.4,14.6-18,33.1-9.8,53.7"/>
<g id="XMLID_3538_">
	<g id="XMLID_48_">
		<path id="XMLID_53_" fill="#FFFFFF" d="M47,87c14.6,0.6,28.7-7.8,35.3-20.9c0.3-0.6-0.6-1.1-0.9-0.5C75,78.4,61.2,86.5,47,86
			C46.3,85.9,46.3,86.9,47,87L47,87z"/>
	</g>
</g>
<path id="XMLID_14_" fill="none" stroke="#FFFFFF" stroke-miterlimit="10" d="M59.8,33.8C46.1,31.5,33,38.4,28.2,49.3
	c-6,13.7,1.9,32.4,19.2,38.2"/>
<path id="XMLID_19_" fill="none" stroke="#FFFFFF" stroke-miterlimit="10" d="M59.9,32.7c12.1-6,25.9-0.7,30.3,9.5
	c3.4,8,0.6,18.4-7.2,24.8"/>
<path id="XMLID_13_" fill="none" stroke="#FFFFFF" stroke-miterlimit="10" d="M48.9,48.5c0.9,2.1,3.1,10.1,13.2,14.8
	c8.1,3.7,16.8,3.9,19.4,3.4"/>
<g id="XMLID_16_">
</g>
<g id="XMLID_17_">
</g>
<g id="XMLID_22_">
</g>
<g id="XMLID_23_">
</g>
<g id="XMLID_24_">
</g>
<g id="XMLID_27_">
</g>
<g id="XMLID_28_">
</g>
<g id="XMLID_29_">
</g>
</svg>
