<?xml version="1.0"?>
<svg width="108" height="108" xmlns="http://www.w3.org/2000/svg" xmlns:svg="http://www.w3.org/2000/svg">
 <!--<g id="XMLID_6_">
	<path id="XMLID_7_" fill="#FFFFFF" d="M107.8,103.2h-1.1V93h1.1V103.2z"/>
	<path id="XMLID_9_" fill="#FFFFFF" d="M110.2,92.5l8,8.3V93h1.1v10.7l-8-8.3v7.9h-1.1V92.5z"/>
	<path id="XMLID_11_" fill="#FFFFFF" d="M126.3,95c-0.4-0.7-0.9-1.1-1.8-1.1c-0.9,0-1.7,0.7-1.7,1.6c0,0.9,0.9,1.3,1.6,1.6l0.7,0.3
		c1.3,0.6,2.5,1.2,2.5,2.9c0,1.8-1.4,3.2-3.2,3.2c-1.6,0-2.9-1.1-3.2-2.6l1.1-0.3c0.1,1,0.9,1.9,2,1.9c1.1,0,2.1-0.8,2.1-2
		c0-1.2-0.9-1.6-1.9-2l-0.6-0.3c-1.2-0.5-2.2-1.2-2.2-2.6c0-1.6,1.3-2.6,2.9-2.6c1.1,0,2.1,0.6,2.6,1.6L126.3,95z"/>
	<path id="XMLID_68_" fill="#FFFFFF" d="M130.7,103.2h-1.1V93h1.1V103.2z"/>
	<path id="XMLID_80_" fill="#FFFFFF" d="M142.5,98c0,1.4-0.1,2.5-1.1,3.6c-0.9,1.1-2.4,1.7-3.8,1.7c-2.9,0-5.3-2.4-5.3-5.3
		c0-2.9,2.4-5.3,5.3-5.3c1.8,0,3.2,0.8,4.3,2.2l-0.8,0.8c-0.9-1.2-2-1.9-3.5-1.9c-2.3,0-4.2,2-4.2,4.3c0,1.1,0.4,2.1,1.2,2.9
		c0.7,0.7,1.8,1.3,2.9,1.3c1.8,0,3.6-1.3,3.6-3.2h-3V98H142.5z"/>
	<path id="XMLID_92_" fill="#FFFFFF" d="M150.7,97.1V93h1.1v10.2h-1.1v-5h-5.2v5h-1.1V93h1.1v4.1H150.7z"/>
	<path id="XMLID_94_" fill="#FFFFFF" d="M156.9,103.2h-1.1V94h-2.5V93h6.1V94h-2.5V103.2z"/>
	<path id="XMLID_96_" fill="#FFFFFF" d="M165.4,95c-0.4-0.7-0.9-1.1-1.8-1.1c-0.9,0-1.7,0.7-1.7,1.6c0,0.9,0.9,1.3,1.6,1.6l0.7,0.3
		c1.3,0.6,2.5,1.2,2.5,2.9c0,1.8-1.4,3.2-3.2,3.2c-1.6,0-2.9-1.1-3.2-2.6l1.1-0.3c0.1,1,0.9,1.9,2,1.9c1.1,0,2.1-0.8,2.1-2
		c0-1.2-0.9-1.6-1.9-2l-0.6-0.3c-1.2-0.5-2.2-1.2-2.2-2.6c0-1.6,1.3-2.6,2.9-2.6c1.1,0,2.1,0.6,2.6,1.6L165.4,95z"/>
	<path id="XMLID_98_" fill="#FFFFFF" d="M174.1,94v3h3.4v1.1h-3.4v5.1H173V93h4.6V94H174.1z"/>
	<path id="XMLID_100_" fill="#FFFFFF" d="M189.9,98.1c0,2.9-2.4,5.3-5.3,5.3s-5.3-2.3-5.3-5.3c0-2.9,2.4-5.3,5.3-5.3
		S189.9,95.2,189.9,98.1z M180.3,98.1c0,2.3,1.9,4.2,4.2,4.2s4.2-1.9,4.2-4.2c0-2.3-1.8-4.2-4.2-4.2S180.3,95.8,180.3,98.1z"/>
	<path id="XMLID_110_" fill="#FFFFFF" d="M192.8,103.2h-1.1V93h1.5c1.9,0,3.7,0.5,3.7,2.8c0,1.6-1,2.7-2.6,2.8l3.3,4.6h-1.4
		l-3.1-4.5h-0.3V103.2z M192.8,97.7h0.4c1.3,0,2.6-0.2,2.6-1.8c0-1.7-1.2-1.8-2.6-1.8h-0.3V97.7z"/>
	<path id="XMLID_113_" fill="#FFFFFF" d="M204.8,103.2h-1.1V93h1.1V103.2z"/>
	<path id="XMLID_115_" fill="#FFFFFF" d="M207.1,92.5l8,8.3V93h1.1v10.7l-8-8.3v7.9h-1.1V92.5z"/>
	<path id="XMLID_117_" fill="#FFFFFF" d="M223.2,95c-0.4-0.7-0.9-1.1-1.8-1.1c-0.9,0-1.7,0.7-1.7,1.6c0,0.9,0.9,1.3,1.6,1.6l0.7,0.3
		c1.3,0.6,2.5,1.2,2.5,2.9c0,1.8-1.4,3.2-3.2,3.2c-1.6,0-2.9-1.1-3.2-2.6l1.1-0.3c0.1,1,0.9,1.9,2,1.9c1.1,0,2.1-0.8,2.1-2
		c0-1.2-0.9-1.6-1.9-2l-0.6-0.3c-1.2-0.5-2.2-1.2-2.2-2.6c0-1.6,1.3-2.6,2.9-2.6c1.1,0,2.1,0.6,2.6,1.6L223.2,95z"/>
	<path id="XMLID_119_" fill="#FFFFFF" d="M229.1,103.2H228V94h-2.5V93h6.1V94h-2.5V103.2z"/>
	<path id="XMLID_121_" fill="#FFFFFF" d="M234.1,103.2H233V93h1.5c1.9,0,3.7,0.5,3.7,2.8c0,1.6-1,2.7-2.6,2.8l3.3,4.6h-1.4l-3.1-4.5
		h-0.3V103.2z M234.1,97.7h0.4c1.3,0,2.6-0.2,2.6-1.8c0-1.7-1.2-1.8-2.6-1.8h-0.3V97.7z"/>
	<path id="XMLID_124_" fill="#FFFFFF" d="M241.7,99c0,0.8,0,1.6,0.4,2.3c0.4,0.6,1.3,1,2.1,1c0.7,0,1.5-0.3,2-0.9
		c0.5-0.7,0.5-1.5,0.5-2.3V93h1.1v6.4c0,1.1-0.1,2-0.9,2.8c-0.7,0.8-1.7,1.2-2.8,1.2c-1,0-2-0.4-2.6-1c-0.9-0.9-1-1.8-1-3V93h1.1V99
		z"/>
	<path id="XMLID_126_" fill="#FFFFFF" d="M257.9,95.2c-0.8-0.8-1.9-1.4-3.1-1.4c-2.3,0-4.1,2-4.1,4.2c0,2.3,1.9,4.2,4.1,4.2
		c1.2,0,2.3-0.5,3.1-1.4v1.4c-0.9,0.6-2,1-3.1,1c-2.9,0-5.3-2.3-5.3-5.2c0-2.9,2.4-5.3,5.3-5.3c1.1,0,2.1,0.3,3.1,1V95.2z"/>
	<path id="XMLID_128_" fill="#FFFFFF" d="M262.7,103.2h-1.1V94h-2.5V93h6.1V94h-2.5V103.2z"/>
	<path id="XMLID_130_" fill="#FFFFFF" d="M267.8,103.2h-1.1V93h1.1V103.2z"/>
	<path id="XMLID_132_" fill="#FFFFFF" d="M280.2,98.1c0,2.9-2.4,5.3-5.3,5.3s-5.3-2.3-5.3-5.3c0-2.9,2.4-5.3,5.3-5.3
		S280.2,95.2,280.2,98.1z M270.7,98.1c0,2.3,1.9,4.2,4.2,4.2s4.2-1.9,4.2-4.2c0-2.3-1.8-4.2-4.2-4.2S270.7,95.8,270.7,98.1z"/>
	<path id="XMLID_135_" fill="#FFFFFF" d="M282.1,92.5l8,8.3V93h1.1v10.7l-8-8.3v7.9h-1.1V92.5z"/>
</g>-->
 <!--<line id="XMLID_15_" fill="none" stroke="#FFFFFF" stroke-miterlimit="10" x1="107.1" y1="86.7" x2="290.8" y2="86.7"/>-->
 <g>
  <title>Layer 1</title>
  <g id="XMLID_16_"/>
  <g id="XMLID_17_"/>
  <g id="XMLID_22_"/>
  <g id="XMLID_23_"/>
  <g id="XMLID_24_"/>
  <g id="XMLID_27_"/>
  <g id="XMLID_28_"/>
  <g id="XMLID_29_"/>
  <g stroke="null" id="svg_1">
   <g stroke="null" id="XMLID_18_">
    <g stroke="null" id="XMLID_837_">
     <path stroke="#FFFFFF" id="XMLID_842_" fill="none" stroke-width="1.5" stroke-miterlimit="10" d="m100.200002,84.799999c-3.7,5.1 -8.1,9.3 -13.1,12.6c-5.6,3.8 -11.9,6.4 -18.5,7.8c-6.6,1.4 -13.4,1.5 -20.1,0.3s-13.3,-3.7 -19.3,-7.7s-11,-8.9 -14.8,-14.6c-3.7,-5.5 -6.4,-11.8 -7.8,-18.4c-1.3,-6.5 -1.5,-13.4 -0.3,-20.1c1.2,-6.7 3.7,-13.3 7.7,-19.3c3.9,-6.1 8.9,-11 14.6,-14.8c5.6,-3.8 11.9,-6.4 18.5,-7.8c6.6,-1.4 13.4,-1.5 20.1,-0.3c6.7,1.2 13.3,3.7 19.3,7.7c4.7,3.1 8.8,6.8 12.2,11"/>
     <g stroke="null" id="XMLID_840_">
      <circle stroke="null" id="XMLID_841_" fill="#FFFFFF" cx="100.100002" cy="84.899999" r="2.8"/>
     </g>
     <g stroke="null" id="XMLID_838_">
      <polygon stroke="null" id="XMLID_839_" fill="#FFFFFF" points="95.10000610351562,21.100000262260437 98.10000610351562,20.400001406669617 99.60000610351562,17.80000102519989 101.30000305175781,24.700000643730164 "/>
     </g>
    </g>
   </g>
   <circle stroke="null" id="XMLID_20_" fill="#FFFFFF" cx="57.900002" cy="30.999999" r="3.2"/>
   <circle stroke="null" id="XMLID_21_" fill="#FFFFFF" cx="47.900002" cy="44.999999" r="3.2"/>
   <circle stroke="null" id="XMLID_25_" fill="#FFFFFF" cx="61.400002" cy="59.999999" r="3.2"/>
   <circle stroke="null" id="XMLID_26_" fill="#FFFFFF" cx="46.800002" cy="83.099999" r="3.2"/>
   <circle stroke="null" id="XMLID_30_" fill="#FFFFFF" cx="27.100002" cy="47.499999" r="3.2"/>
   <circle stroke="null" id="XMLID_31_" fill="#FFFFFF" cx="80.400002" cy="63.199999" r="3.2"/>
   <circle stroke="null" id="XMLID_39_" fill="#FFFFFF" cx="88.100002" cy="38.599999" r="3.2"/>
   <path stroke="#FFFFFF" id="XMLID_4575_" fill="none" stroke-miterlimit="10" d="m57.300002,30.299999c11.9,7.1 20.3,19.8 22.2,33.6"/>
   <path stroke="#FFFFFF" id="XMLID_4574_" fill="none" stroke-miterlimit="10" d="m57.200002,30.299999c-13.4,14.6 -18,33.1 -9.8,53.7"/>
   <g stroke="null" id="XMLID_3538_">
    <g stroke="null" id="XMLID_48_">
     <path stroke="null" id="XMLID_53_" fill="#FFFFFF" d="m46.000002,83.699999c14.6,0.6 28.7,-7.8 35.3,-20.9c0.3,-0.6 -0.6,-1.1 -0.9,-0.5c-6.4,12.8 -20.2,20.9 -34.4,20.4c-0.7,-0.1 -0.7,0.9 0,1l0,0z"/>
    </g>
   </g>
   <path stroke="#FFFFFF" id="XMLID_14_" fill="none" stroke-miterlimit="10" d="m58.800002,30.499999c-13.7,-2.3 -26.8,4.6 -31.6,15.5c-6,13.7 1.9,32.4 19.2,38.2"/>
   <path stroke="#FFFFFF" id="XMLID_19_" fill="none" stroke-miterlimit="10" d="m58.900002,29.399999c12.1,-6 25.9,-0.7 30.3,9.5c3.4,8 0.6,18.4 -7.2,24.8"/>
   <path stroke="#FFFFFF" id="XMLID_13_" fill="none" stroke-miterlimit="10" d="m47.900002,45.199999c0.9,2.1 3.1,10.1 13.2,14.8c8.1,3.7 16.8,3.9 19.4,3.4"/>
  </g>
 </g>
</svg>