<?xml version="1.0" encoding="utf-8"?>
<!-- SVG generated by ELM KMap! -->
<svg version="1.1" xmlns="http://www.w3.org/2000/svg" xmlns:xlink="http://www.w3.org/1999/xlink" id="svgelement" x="0px" y="0px" width="400px" height="400px" viewBox="-45 -45 310 400" xml:space="preserve">
<defs>
<marker id="end-arrow" viewBox="0 -5 10 10" markerWidth="3.2" markerHeight="3.2" refX="8" orient="auto"><path d="M0,-5L10,0L0,5"></path></marker></defs><g>
<g>
<g opacity="1" id="edgeG-M-2625M-2626"><path class="link" d="M110,25L97,35C84,45,58,66,43,79C29,93,27,99,26,102L24,105" style="fill:none; stroke:#333; stroke-width:10px; marker-end: url(&quot;#end-arrow&quot;); stroke: rgb(0, 0, 0);"></path></g>
<g opacity="1" id="edgeG-M-2625M-2627"><path class="link" d="M110,25L123,35C136,45,162,66,177,79C191,93,193,99,194,102L196,105" style="fill:none; stroke:#333; stroke-width:10px; marker-end: url(&quot;#end-arrow&quot;); stroke: rgb(0, 0, 0);"></path></g>
<g opacity="1" id="edgeG-M-2626M-2628"><path class="link" d="M25,155L26,165C26,176,27,197,35,213C42,230,56,242,63,248L70,255" style="fill:none; stroke:#333; stroke-width:10px; marker-end: url(&quot;#end-arrow&quot;); stroke: rgb(0, 0, 0);"></path></g>
<g opacity="1" id="edgeG-M-2627M-2628"><path class="link" d="M195,155L194,165C194,176,193,197,185,213C178,230,164,242,157,248L150,255" style="fill:none; stroke:#333; stroke-width:10px; marker-end: url(&quot;#end-arrow&quot;); stroke: rgb(0, 0, 0);"></path></g>
</g>
<g>
<g opacity="1" class="concept-g" id="circleG-M-2625" transform="translate(110,25)"><circle r="50" id="circle-M-2625" style="fill:#F0F8FF; stroke-width: 15px; fill:#F0F8FF;  stroke: rgb(0, 0, 255);"></circle></g>
<g opacity="1" class="concept-g" id="circleG-M-2626" transform="translate(15,155)"><circle r="50" id="circle-M-2626" style="fill:#F0F8FF; stroke-width: 15px; fill:#F0F8FF;  stroke: rgb(170, 0, 0);"></circle></g>
<g opacity="1" class="concept-g" id="circleG-M-2627" transform="translate(205,155)"><circle r="50" id="circle-M-2627" style="fill:#F0F8FF; stroke-width: 15px; fill:#F0F8FF;  stroke: rgb(0, 0, 255);"></circle></g>
<g opacity="1" class="concept-g" id="circleG-M-2628" transform="translate(110,285)"><circle r="50" id="circle-M-2628" style="fill:#F0F8FF; stroke-width: 15px; fill:#F0F8FF;  stroke: rgb(170, 0, 0);"></circle></g>
</g>
</g>
</svg>