<?xml version="1.0" encoding="UTF-8" standalone="no"?>


<svg 
xmlns="http://www.w3.org/2000/svg" 
xmlns:svg="http://www.w3.org/2000/svg"
xmlns:xlink="http://www.w3.org/1999/xlink"
version="1.1"
   width="21cm"
   height="29.7cm"
><g><defs><marker id="end-arrow" viewBox="0 -5 10 10" markerWidth="5.5" markerHeight="5.5" refX="8" orient="auto"><path d="M0,-5L10,0L0,5"></path></marker></defs><g class="graph" id="maingraphel"><g><g id="37-422" opacity="1"><path class="link" stroke-width="1.0506198347107436px" style="marker-end: url(&quot;#end-arrow&quot;);" d="M17.477272727272755,138.68181818181822L17.477272727272755,148.31250000000003C17.477272727272755,157.94318181818184,17.477272727272755,177.2045454545455,42.44975541848913,195.09173406627966C67.4222381097055,212.97892267801382,117.36720349213826,229.49193626511854,142.33968618335462,237.7484430586709L167.312168874571,246.00494985222326"></path><path class="link-wrapper" opacity="0.01" stroke="rgb(0, 0, 255)" stroke-width="12.607438016528924px" pointer-events="visiblePainted" d="M17.477272727272755,138.68181818181822L17.477272727272755,148.31250000000003C17.477272727272755,157.94318181818184,17.477272727272755,177.2045454545455,42.44975541848913,195.09173406627966C67.4222381097055,212.97892267801382,117.36720349213826,229.49193626511854,142.33968618335462,237.7484430586709L167.312168874571,246.00494985222326"></path></g><g id="387-421" opacity="1"><path class="link" stroke-width="1.0506198347107436px" style="marker-end: url(&quot;#end-arrow&quot;);" d="M192.25,369.8181818181818L192.24999999999997,379.4488636363636C192.25,389.0795454545454,192.25,408.340909090909,192.24999999999997,423.22469008264454C192.25,438.1084710743801,192.25,448.6146694214875,192.24999999999997,453.86776859504124L192.25,459.120867768595"></path><path class="link-wrapper" opacity="0.01" stroke="rgb(0, 0, 255)" stroke-width="12.607438016528924px" pointer-events="visiblePainted" d="M192.25,369.8181818181818L192.24999999999997,379.4488636363636C192.25,389.0795454545454,192.25,408.340909090909,192.24999999999997,423.22469008264454C192.25,438.1084710743801,192.25,448.6146694214875,192.24999999999997,453.86776859504124L192.25,459.120867768595"></path></g><g id="422-387" opacity="1"><path class="link" stroke-width="1.0506198347107436px" style="marker-end: url(&quot;#end-arrow&quot;);" d="M192.25,254.25L192.24999999999997,263.8806818181818C192.25,273.5113636363636,192.25,292.77272727272725,192.24999999999997,307.6565082644628C192.25,322.5402892561983,192.25,333.04648760330576,192.24999999999997,338.2995867768595L192.25,343.5526859504132"></path><path class="link-wrapper" opacity="0.01" stroke="rgb(0, 0, 255)" stroke-width="12.607438016528924px" pointer-events="visiblePainted" d="M192.25,254.25L192.24999999999997,263.8806818181818C192.25,273.5113636363636,192.25,292.77272727272725,192.24999999999997,307.6565082644628C192.25,322.5402892561983,192.25,333.04648760330576,192.24999999999997,338.2995867768595L192.25,343.5526859504132"></path></g><g id="388-636" opacity="1"><path class="link" stroke-width="1.0506198347107436px" style="marker-end: url(&quot;#end-arrow&quot;);" d="M279.6363636363636,23.113636363636413L265.0719696969697,32.74431818181823C250.50757575757575,42.37500000000004,221.37878787878788,61.63636363636367,206.8143939393939,76.5201446280992C192.25,91.40392561983474,192.25,101.91012396694217,192.24999999999997,107.16322314049589L192.25,112.41632231404962"></path><path class="link-wrapper" opacity="0.01" stroke="rgb(0, 0, 255)" stroke-width="12.607438016528924px" pointer-events="visiblePainted" d="M279.6363636363636,23.113636363636413L265.0719696969697,32.74431818181823C250.50757575757575,42.37500000000004,221.37878787878788,61.63636363636367,206.8143939393939,76.5201446280992C192.25,91.40392561983474,192.25,101.91012396694217,192.24999999999997,107.16322314049589L192.25,112.41632231404962"></path></g><g id="388-637" opacity="1"><path class="link" stroke-width="1.0506198347107436px" style="marker-end: url(&quot;#end-arrow&quot;);" d="M279.6363636363636,23.113636363636413L294.20075757575756,32.74431818181823C308.7651515151515,42.37500000000004,337.8939393939394,61.63636363636367,352.4583333333333,76.5201446280992C367.02272727272725,91.40392561983474,367.02272727272725,101.91012396694217,367.02272727272725,107.16322314049589L367.02272727272725,112.41632231404962"></path><path class="link-wrapper" opacity="0.01" stroke="rgb(0, 0, 255)" stroke-width="12.607438016528924px" pointer-events="visiblePainted" d="M279.6363636363636,23.113636363636413L294.20075757575756,32.74431818181823C308.7651515151515,42.37500000000004,337.8939393939394,61.63636363636367,352.4583333333333,76.5201446280992C367.02272727272725,91.40392561983474,367.02272727272725,101.91012396694217,367.02272727272725,107.16322314049589L367.02272727272725,112.41632231404962"></path></g><g id="636-422" opacity="1"><path class="link" stroke-width="1.0506198347107436px" style="marker-end: url(&quot;#end-arrow&quot;);" d="M192.25,138.68181818181822L192.24999999999997,148.31250000000003C192.25,157.94318181818184,192.25,177.2045454545455,192.24999999999997,192.08832644628103C192.25,206.97210743801656,192.25,217.47830578512398,192.24999999999997,222.7314049586777L192.25,227.98450413223142"></path><path class="link-wrapper" opacity="0.01" stroke="rgb(0, 0, 255)" stroke-width="12.607438016528924px" pointer-events="visiblePainted" d="M192.25,138.68181818181822L192.24999999999997,148.31250000000003C192.25,157.94318181818184,192.25,177.2045454545455,192.24999999999997,192.08832644628103C192.25,206.97210743801656,192.25,217.47830578512398,192.24999999999997,222.7314049586777L192.25,227.98450413223142"></path></g><g id="637-422" opacity="1"><path class="link" stroke-width="1.0506198347107436px" style="marker-end: url(&quot;#end-arrow&quot;);" d="M367.02272727272725,138.68181818181822L367.02272727272725,148.31250000000003C367.02272727272725,157.94318181818184,367.02272727272725,177.2045454545455,342.05024458151087,195.09173406627966C317.0777618902945,212.97892267801382,267.1327965078617,229.49193626511854,242.16031381664533,237.7484430586709L217.187831125429,246.00494985222326"></path><path class="link-wrapper" opacity="0.01" stroke="rgb(0, 0, 255)" stroke-width="12.607438016528924px" pointer-events="visiblePainted" d="M367.02272727272725,138.68181818181822L367.02272727272725,148.31250000000003C367.02272727272725,157.94318181818184,367.02272727272725,177.2045454545455,342.05024458151087,195.09173406627966C317.0777618902945,212.97892267801382,267.1327965078617,229.49193626511854,242.16031381664533,237.7484430586709L217.187831125429,246.00494985222326"></path></g></g><g><g id="circlgG-37" class="concept-g" opacity="1" transform="translate(17.477272727272755,138.68181818181822), scale(0.5253099173553718)"><circle r="50" stroke-width="3" stroke="rgb(0, 0, 255)" style="fill: rgb(240, 248, 255);"></circle><circle class="circle-shadow" opacity="0.2" r="56" stroke-width="3" stroke="rgb(0, 0, 255)" style="fill: rgb(240, 248, 255);"></circle><g class="hourglass-icon-g"><polygon opacity="0.01" transform="translate(37,-20)" points="0,0 25,0 14.583333333333334,20 25,40 0,40 10.416666666666666,20 0,0"></polygon></g><text class="title-text-class" text-anchor="middle" dy="-6.5"><tspan>skip count by</tspan><tspan x="0" dy="15">2s</tspan></text><g class="ol-icon-g plus-top" opacity="0.01"><polygon transform="translate(0,-50)" points="-5,-15 5,-15 5,-5 15,-5 15,5 5,5 5,15 -5,15 -5,5 -15,5 -15,-5 -5,-5 -5,-15"></polygon></g><g class="ol-icon-g plus-bottom" opacity="0.01"><polygon transform="translate(0,50)" points="-5,-15 5,-15 5,-5 15,-5 15,5 5,5 5,15 -5,15 -5,5 -15,5 -15,-5 -5,-5 -5,-15"></polygon></g></g><g id="circlgG-387" class="concept-g" opacity="1" transform="translate(192.25,369.8181818181818), scale(0.5253099173553718)"><circle r="50" stroke-width="3" stroke="rgb(170, 0, 0)" style="fill: rgb(240, 248, 255);"></circle><circle class="circle-shadow" opacity="0.2" r="56" stroke-width="3" stroke="rgb(170, 0, 0)" style="fill: rgb(240, 248, 255);"></circle><g class="hourglass-icon-g"><polygon opacity="0.01" transform="translate(37,-20)" points="0,0 25,0 14.583333333333334,20 25,40 0,40 10.416666666666666,20 0,0"></polygon></g><text class="title-text-class" text-anchor="middle" dy="-19.5"><tspan>classify</tspan><tspan x="0" dy="15">whole numbers</tspan><tspan x="0" dy="15">as even or</tspan><tspan x="0" dy="15">odd</tspan></text><g class="ol-icon-g plus-top" opacity="0.01"><polygon transform="translate(0,-50)" points="-5,-15 5,-15 5,-5 15,-5 15,5 5,5 5,15 -5,15 -5,5 -15,5 -15,-5 -5,-5 -5,-15"></polygon></g><g class="ol-icon-g plus-bottom" opacity="0.01"><polygon transform="translate(0,50)" points="-5,-15 5,-15 5,-5 15,-5 15,5 5,5 5,15 -5,15 -5,5 -15,5 -15,-5 -5,-5 -5,-15"></polygon></g></g><g id="circlgG-388" class="concept-g" opacity="1" transform="translate(279.6363636363636,23.113636363636413), scale(0.5253099173553718)"><circle r="50" stroke-width="3" stroke="rgb(170, 0, 0)" style="fill: rgb(240, 248, 255);"></circle><circle class="circle-shadow" opacity="0.2" r="56" stroke-width="3" stroke="rgb(170, 0, 0)" style="fill: rgb(240, 248, 255);"></circle><g class="hourglass-icon-g"><polygon opacity="0.01" transform="translate(37,-20)" points="0,0 25,0 14.583333333333334,20 25,40 0,40 10.416666666666666,20 0,0"></polygon></g><text class="title-text-class" text-anchor="middle" dy="-19.5"><tspan>recognize odd</tspan><tspan x="0" dy="15">or even by</tspan><tspan x="0" dy="15">pairing</tspan><tspan x="0" dy="15">objects</tspan></text><g class="ol-icon-g plus-top" opacity="0.01"><polygon transform="translate(0,-50)" points="-5,-15 5,-15 5,-5 15,-5 15,5 5,5 5,15 -5,15 -5,5 -15,5 -15,-5 -5,-5 -5,-15"></polygon></g><g class="ol-icon-g plus-bottom" opacity="0.01"><polygon transform="translate(0,50)" points="-5,-15 5,-15 5,-5 15,-5 15,5 5,5 5,15 -5,15 -5,5 -15,5 -15,-5 -5,-5 -5,-15"></polygon></g></g><g id="circlgG-421" class="concept-g reduce-node-title" opacity="1" transform="translate(192.25,485.3863636363636), scale(0.5253099173553718)"><circle r="50" stroke-width="3" stroke="rgb(170, 0, 0)" style="fill: rgb(240, 248, 255);"></circle><circle class="circle-shadow" opacity="0.2" r="56" stroke-width="3" stroke="rgb(170, 0, 0)" style="fill: rgb(240, 248, 255);"></circle><g class="hourglass-icon-g"><polygon opacity="0.01" transform="translate(37,-20)" points="0,0 25,0 14.583333333333334,20 25,40 0,40 10.416666666666666,20 0,0"></polygon></g><text class="title-text-class" text-anchor="middle" dy="-21.666666666666668"><tspan>represent</tspan><tspan x="0" dy="10">even numbers</tspan><tspan x="0" dy="10">in an</tspan><tspan x="0" dy="10">equation as a</tspan><tspan x="0" dy="10">sum of 2</tspan><tspan x="0" dy="10">equal addends</tspan></text><g class="ol-icon-g plus-top" opacity="0.01"><polygon transform="translate(0,-50)" points="-5,-15 5,-15 5,-5 15,-5 15,5 5,5 5,15 -5,15 -5,5 -15,5 -15,-5 -5,-5 -5,-15"></polygon></g><g class="ol-icon-g plus-bottom" opacity="0.01"><polygon transform="translate(0,50)" points="-5,-15 5,-15 5,-5 15,-5 15,5 5,5 5,15 -5,15 -5,5 -15,5 -15,-5 -5,-5 -5,-15"></polygon></g></g><g id="circlgG-422" class="concept-g reduce-node-title" opacity="1" transform="translate(192.25,254.25), scale(0.5253099173553718)"><circle r="50" stroke-width="3" stroke="rgb(170, 0, 0)" style="fill: rgb(240, 248, 255);"></circle><circle class="circle-shadow" opacity="0.2" r="56" stroke-width="3" stroke="rgb(170, 0, 0)" style="fill: rgb(240, 248, 255);"></circle><g class="hourglass-icon-g"><polygon opacity="0.01" transform="translate(37,-20)" points="0,0 25,0 14.583333333333334,20 25,40 0,40 10.416666666666666,20 0,0"></polygon></g><text class="title-text-class" text-anchor="middle" dy="-21.666666666666668"><tspan>determine</tspan><tspan x="0" dy="10">whether a</tspan><tspan x="0" dy="10">number is odd</tspan><tspan x="0" dy="10">or even by</tspan><tspan x="0" dy="10">counting by</tspan><tspan x="0" dy="10">2s</tspan></text><g class="ol-icon-g plus-top" opacity="0.01"><polygon transform="translate(0,-50)" points="-5,-15 5,-15 5,-5 15,-5 15,5 5,5 5,15 -5,15 -5,5 -15,5 -15,-5 -5,-5 -5,-15"></polygon></g><g class="ol-icon-g plus-bottom" opacity="0.01"><polygon transform="translate(0,50)" points="-5,-15 5,-15 5,-5 15,-5 15,5 5,5 5,15 -5,15 -5,5 -15,5 -15,-5 -5,-5 -5,-15"></polygon></g></g><g id="circlgG-636" class="concept-g" opacity="1" transform="translate(192.25,138.68181818181822), scale(0.5253099173553718)"><circle r="50" stroke-width="3" stroke="rgb(170, 0, 0)" style="fill: rgb(240, 248, 255);"></circle><circle class="circle-shadow" opacity="0.2" r="56" stroke-width="3" stroke="rgb(170, 0, 0)" style="fill: rgb(240, 248, 255);"></circle><g class="hourglass-icon-g"><polygon opacity="0.01" transform="translate(37,-20)" points="0,0 25,0 14.583333333333334,20 25,40 0,40 10.416666666666666,20 0,0"></polygon></g><text class="title-text-class" text-anchor="middle" dy="-6.5"><tspan>explain</tspan><tspan font-style="italic" x="0" dy="15">even</tspan></text><g class="ol-icon-g plus-top" opacity="0.01"><polygon transform="translate(0,-50)" points="-5,-15 5,-15 5,-5 15,-5 15,5 5,5 5,15 -5,15 -5,5 -15,5 -15,-5 -5,-5 -5,-15"></polygon></g><g class="ol-icon-g plus-bottom" opacity="0.01"><polygon transform="translate(0,50)" points="-5,-15 5,-15 5,-5 15,-5 15,5 5,5 5,15 -5,15 -5,5 -15,5 -15,-5 -5,-5 -5,-15"></polygon></g></g><g id="circlgG-637" class="concept-g" opacity="1" transform="translate(367.02272727272725,138.68181818181822), scale(0.5253099173553718)"><circle r="50" stroke-width="3" stroke="rgb(170, 0, 0)" style="fill: rgb(240, 248, 255);"></circle><circle class="circle-shadow" opacity="0.2" r="56" stroke-width="3" stroke="rgb(170, 0, 0)" style="fill: rgb(240, 248, 255);"></circle><g class="hourglass-icon-g"><polygon opacity="0.01" transform="translate(37,-20)" points="0,0 25,0 14.583333333333334,20 25,40 0,40 10.416666666666666,20 0,0"></polygon></g><text class="title-text-class" text-anchor="middle" dy="-6.5"><tspan>explain</tspan><tspan font-style="italic" x="0" dy="15">odd</tspan></text><g class="ol-icon-g plus-top" opacity="0.01"><polygon transform="translate(0,-50)" points="-5,-15 5,-15 5,-5 15,-5 15,5 5,5 5,15 -5,15 -5,5 -15,5 -15,-5 -5,-5 -5,-15"></polygon></g><g class="ol-icon-g plus-bottom" opacity="0.01"><polygon transform="translate(0,50)" points="-5,-15 5,-15 5,-5 15,-5 15,5 5,5 5,15 -5,15 -5,5 -15,5 -15,-5 -5,-5 -5,-15"></polygon></g></g></g></g></g></svg>